<!-- Generated by IcoMoon.io -->
<svg version="1.1" xmlns="http://www.w3.org/2000/svg" width="1024" height="1024" viewBox="0 0 1024 1024">
<title></title>
<g id="icomoon-ignore">
</g>
<path fill="#afb1b8" d="M1023.744 1024.005v-0.041h0.256v-375.552c0-183.725-39.552-325.25-254.336-325.25-103.255 0-172.544 56.661-200.832 110.378h-2.985v-93.226h-203.65v683.65h212.052v-338.519c0-89.129 16.896-175.318 127.278-175.318 108.754 0 110.377 101.718 110.377 181.037v332.841h211.84z"></path>
<path fill="#afb1b8" d="M16.897 340.35h212.309v683.65h-212.309v-683.65z"></path>
<path fill="#afb1b8" d="M122.966 0c-67.883 0-122.966 55.082-122.966 122.966s55.082 124.117 122.966 124.117c67.882 0 122.965-56.234 122.965-124.117-0.042-67.883-55.125-122.966-122.965-122.966v0z"></path>
</svg>
